STARTFONT 2.3
FONT -FontForge-Fontdiner Swanky-Book-R-Normal--14-140-72-72-P-88-ISO10646-1
SIZE 14 72 72  2
FONTBOUNDINGBOX 19 22 -3 -7
COMMENT "Generated by fontforge, http://fontforge.sourceforge.net"
COMMENT "Copyright (c) 2010 by Font Diner, Inc. All rights reserved."
STARTPROPERTIES 40
FOUNDRY "FontForge"
FAMILY_NAME "Fontdiner Swanky"
WEIGHT_NAME "Book"
SLANT "R"
SETWIDTH_NAME "Normal"
ADD_STYLE_NAME ""
PIXEL_SIZE 14
POINT_SIZE 140
RESOLUTION_X 72
RESOLUTION_Y 72
SPACING "P"
AVERAGE_WIDTH 88
CHARSET_REGISTRY "ISO10646"
CHARSET_ENCODING "1"
FONTNAME_REGISTRY ""
CHARSET_COLLECTIONS "ISO10646-1"
BITS_PER_PIXEL 2
FONT_NAME "FontdinerSwanky-Regular"
FACE_NAME "Fontdiner Swanky Regular"
COPYRIGHT "Copyright (c) 2010 by Font Diner, Inc. All rights reserved."
FONT_VERSION "1.001"
FONT_ASCENT 11
FONT_DESCENT 3
UNDERLINE_POSITION -1
UNDERLINE_THICKNESS 1
X_HEIGHT 7
CAP_HEIGHT 8
RAW_ASCENT 799
RAW_DESCENT 200
NORM_SPACE 4
RELATIVE_WEIGHT 40
RELATIVE_SETWIDTH 50
SUPERSCRIPT_X 0
SUPERSCRIPT_Y 6
SUPERSCRIPT_SIZE 8
SUBSCRIPT_X 0
SUBSCRIPT_Y 1
SUBSCRIPT_SIZE 8
AVG_LOWERCASE_WIDTH 88
AVG_UPPERCASE_WIDTH 107
ENDPROPERTIES
CHARS 231
STARTCHAR space
ENCODING 32
SWIDTH 320 0
DWIDTH 4 0
BBX 1 1 0 0
BITMAP
00
ENDCHAR
STARTCHAR exclam
ENCODING 33
SWIDTH 305 0
DWIDTH 4 0
BBX 4 12 0 0
BITMAP
2A
2F
2F
2E
2E
3D
3C
3C
38
14
B4
B8
ENDCHAR
STARTCHAR quotedbl
ENCODING 34
SWIDTH 369 0
DWIDTH 5 0
BBX 5 5 0 5
BITMAP
5140
B7C0
B7C0
B380
5140
ENDCHAR
STARTCHAR numbersign
ENCODING 35
SWIDTH 702 0
DWIDTH 10 0
BBX 10 10 0 0
BITMAP
050500
0B0A00
6FAF90
BFFFD0
0B0E00
0E1D00
BFFFD0
AFAF80
0D1D00
091800
ENDCHAR
STARTCHAR dollar
ENCODING 36
SWIDTH 545 0
DWIDTH 8 0
BBX 8 13 0 -2
BITMAP
0100
0740
0B44
7FE8
B42C
B908
7FE4
4BFC
A07D
B97D
9BE4
0380
0280
ENDCHAR
STARTCHAR percent
ENCODING 37
SWIDTH 657 0
DWIDTH 9 0
BBX 10 12 0 -1
BITMAP
040A00
7E1E00
A76D00
BB7800
15B400
00F000
01E000
02C640
03AED0
0B6CD0
0E1F80
050000
ENDCHAR
STARTCHAR ampersand
ENCODING 38
SWIDTH 668 0
DWIDTH 9 0
BBX 11 13 0 -2
BITMAP
014000
1EB400
3C3800
2D3400
1FA000
0BC100
2EE200
78FA80
B87F54
7EBFE0
2F9B40
001900
001000
ENDCHAR
STARTCHAR quotesingle
ENCODING 39
SWIDTH 177 0
DWIDTH 2 0
BBX 3 5 0 5
BITMAP
50
B4
B4
B0
50
ENDCHAR
STARTCHAR parenleft
ENCODING 40
SWIDTH 384 0
DWIDTH 5 0
BBX 5 14 0 -2
BITMAP
0040
0740
1E00
2D00
3C00
7C00
7800
7800
7C00
3C00
2D00
1F00
0740
0080
ENDCHAR
STARTCHAR parenright
ENCODING 41
SWIDTH 375 0
DWIDTH 5 0
BBX 5 14 0 -2
BITMAP
4000
3800
1E00
0F00
0B40
0780
0780
0780
0B80
0B40
0F00
2E00
3800
9000
ENDCHAR
STARTCHAR asterisk
ENCODING 42
SWIDTH 640 0
DWIDTH 9 0
BBX 9 9 0 0
BITMAP
192400
1E3D00
0BB800
ABF580
BFFFC0
97F540
0BB800
1E3D00
081000
ENDCHAR
STARTCHAR plus
ENCODING 43
SWIDTH 607 0
DWIDTH 9 0
BBX 9 9 0 0
BITMAP
029000
03D000
03D000
BFEA40
FFFF40
56D400
02C000
02C000
014000
ENDCHAR
STARTCHAR comma
ENCODING 44
SWIDTH 226 0
DWIDTH 3 0
BBX 3 4 0 -3
BITMAP
78
BC
28
20
ENDCHAR
STARTCHAR hyphen
ENCODING 45
SWIDTH 549 0
DWIDTH 8 0
BBX 6 3 1 3
BITMAP
FFA0
FFE0
5540
ENDCHAR
STARTCHAR period
ENCODING 46
SWIDTH 226 0
DWIDTH 3 0
BBX 3 3 0 -2
BITMAP
B8
BC
10
ENDCHAR
STARTCHAR slash
ENCODING 47
SWIDTH 600 0
DWIDTH 8 0
BBX 9 13 0 -1
BITMAP
000B40
001F80
003F00
007D00
00F800
02F000
07D000
0B8000
1F4000
3E0000
BC0000
F40000
A00000
ENDCHAR
STARTCHAR zero
ENCODING 48
SWIDTH 740 0
DWIDTH 10 0
BBX 10 9 0 0
BITMAP
06A900
2FAF80
7D03E0
B801F0
B801F0
B801F0
7D03E0
1F5B80
06F900
ENDCHAR
STARTCHAR one
ENCODING 49
SWIDTH 503 0
DWIDTH 7 0
BBX 9 11 -1 -1
BITMAP
06B000
5BF000
01F000
01F000
01F000
01F000
01F000
00F000
00F000
06F900
155540
ENDCHAR
STARTCHAR two
ENCODING 50
SWIDTH 638 0
DWIDTH 9 0
BBX 9 12 0 -1
BITMAP
400000
66F800
7E6F00
380B40
300B40
101F00
01BD40
0BD140
2E0240
BD5B40
FFFF40
155500
ENDCHAR
STARTCHAR three
ENCODING 51
SWIDTH 620 0
DWIDTH 9 0
BBX 9 12 0 -1
BITMAP
400000
86A400
BEBD00
741F00
200F00
016E00
03FE00
106F40
601F40
B42F00
AFFD00
469000
ENDCHAR
STARTCHAR four
ENCODING 52
SWIDTH 606 0
DWIDTH 8 0
BBX 9 12 -1 -1
BITMAP
000100
000900
001D00
007D00
01FD00
03FD00
0B2D80
2E7EC0
6ABEC0
002D80
002D00
01FF40
ENDCHAR
STARTCHAR five
ENCODING 53
SWIDTH 610 0
DWIDTH 9 0
BBX 8 12 0 -1
BITMAP
0001
5AFF
FFAA
B402
BA91
7FFD
203F
001F
502F
797E
AFF8
4150
ENDCHAR
STARTCHAR six
ENCODING 54
SWIDTH 619 0
DWIDTH 9 0
BBX 9 12 0 -1
BITMAP
000100
069A00
1FFE00
3E1A00
7D5100
BFFD00
FD1F40
F80B80
F40B80
B80B40
3D6E00
0BE400
ENDCHAR
STARTCHAR seven
ENCODING 55
SWIDTH 598 0
DWIDTH 8 0
BBX 9 11 0 -1
BITMAP
BFAA80
BABF80
701F40
202F00
103D00
007C00
007800
00B400
00F000
06F400
1AAA00
ENDCHAR
STARTCHAR eight
ENCODING 56
SWIDTH 642 0
DWIDTH 9 0
BBX 9 12 0 -2
BITMAP
06E400
2E6E00
7C0F40
7C0F40
3D1F00
2FFE00
7E6F80
F80BC0
F80BC0
BD1F80
1FFD00
004000
ENDCHAR
STARTCHAR nine
ENCODING 57
SWIDTH 610 0
DWIDTH 9 0
BBX 9 12 0 -2
BITMAP
1BE400
7D6D00
B80F00
F40F40
F80F40
7D6F40
2FFF40
515F00
397D00
3FF800
219000
100000
ENDCHAR
STARTCHAR colon
ENCODING 58
SWIDTH 223 0
DWIDTH 3 0
BBX 3 7 0 -2
BITMAP
64
FC
64
00
B8
B8
10
ENDCHAR
STARTCHAR semicolon
ENCODING 59
SWIDTH 228 0
DWIDTH 3 0
BBX 3 8 0 -3
BITMAP
64
FC
64
00
B8
FC
38
60
ENDCHAR
STARTCHAR less
ENCODING 60
SWIDTH 563 0
DWIDTH 8 0
BBX 8 9 0 0
BITMAP
000B
007F
06FE
2FE4
BF40
1F80
02E0
002D
0006
ENDCHAR
STARTCHAR equal
ENCODING 61
SWIDTH 531 0
DWIDTH 7 0
BBX 8 6 0 1
BITMAP
5554
FFFD
AAA8
5558
FFFD
AAA9
ENDCHAR
STARTCHAR greater
ENCODING 62
SWIDTH 576 0
DWIDTH 8 0
BBX 8 9 0 0
BITMAP
A000
BE00
7FD0
0BF9
00BE
01F4
0B80
2D00
6000
ENDCHAR
STARTCHAR question
ENCODING 63
SWIDTH 592 0
DWIDTH 8 0
BBX 9 13 0 -1
BITMAP
100000
7FE400
A07D00
401F00
000F40
002F00
0EFD00
1F5000
1E0000
050000
780000
BD0000
140000
ENDCHAR
STARTCHAR at
ENCODING 64
SWIDTH 792 0
DWIDTH 11 0
BBX 12 11 0 -1
BITMAP
005500
0BEBD0
2D14B4
75EB3C
B2C76D
E19B5D
F2DB5D
B3DB2C
79AB78
1F4290
015400
ENDCHAR
STARTCHAR A
ENCODING 65
SWIDTH 788 0
DWIDTH 11 0
BBX 16 13 -2 -3
BITMAP
01550000
007F8000
000BC000
000FD000
001EF000
0034F400
0075BC00
00FFFD00
02802F00
0B801F40
6AE00FD0
00000FF9
00002940
ENDCHAR
STARTCHAR B
ENCODING 66
SWIDTH 774 0
DWIDTH 11 0
BBX 12 12 -1 -2
BITMAP
555000
7FFFE4
0BD5BD
0BC02E
07C07E
07FFF8
07EBE4
07D0BC
03D07D
03D6F8
1BFF90
654000
ENDCHAR
STARTCHAR C
ENCODING 67
SWIDTH 766 0
DWIDTH 11 0
BBX 11 11 0 -1
BITMAP
016914
0BFFB4
2F41F0
7D0030
BC0010
BC0000
BC0000
7D0010
2F4070
0BEBE0
01AA44
ENDCHAR
STARTCHAR D
ENCODING 68
SWIDTH 833 0
DWIDTH 12 0
BBX 13 11 -1 -1
BITMAP
55554000
1FFFF400
02F07E00
02F00F40
02F00B80
01F00B80
01F00F80
01E00F40
01E07E00
07FFF400
15500000
ENDCHAR
STARTCHAR E
ENCODING 69
SWIDTH 781 0
DWIDTH 11 0
BBX 12 11 -1 -1
BITMAP
56ABFD
1BE55D
03E00D
02E145
02E240
02FF40
02EB44
02E248
02E01C
1BFFFC
155554
ENDCHAR
STARTCHAR F
ENCODING 70
SWIDTH 731 0
DWIDTH 10 0
BBX 11 11 -1 -1
BITMAP
55AAF8
1BE568
03E018
03E108
03E304
03FF00
03EB00
02D200
02D100
07E000
2AA900
ENDCHAR
STARTCHAR G
ENCODING 71
SWIDTH 828 0
DWIDTH 12 0
BBX 12 12 0 -1
BITMAP
000004
01A924
0BFFF4
2F41B0
7D0030
BC0010
BC1AAA
BC01F4
7D00F4
2F41F4
0BFBA8
016500
ENDCHAR
STARTCHAR H
ENCODING 72
SWIDTH 797 0
DWIDTH 11 0
BBX 13 11 -1 -1
BITMAP
0006AA40
6AA4BC00
0BC0B800
0B80B800
0B80B800
0BEAB800
0BFAB800
0B80B800
0780B800
0786FE40
2FE40000
ENDCHAR
STARTCHAR I
ENCODING 73
SWIDTH 445 0
DWIDTH 6 0
BBX 8 12 -1 -2
BITMAP
6AA9
0BE4
03E0
03E0
03D0
02D0
02D0
02D0
02D0
02D0
1BF8
1555
ENDCHAR
STARTCHAR J
ENCODING 74
SWIDTH 718 0
DWIDTH 10 0
BBX 12 13 -1 -2
BITMAP
000001
0016B9
016BD0
0003D0
0002E0
0002E0
0001F0
0001F0
6A41F0
2E01E0
0E02D0
079B80
01A900
ENDCHAR
STARTCHAR K
ENCODING 75
SWIDTH 934 0
DWIDTH 13 0
BBX 16 12 -1 -1
BITMAP
00150000
6FF95554
03E01F90
03E07D00
03E6E000
03FFC000
02E6E000
02D0B800
02D07D00
02E01F40
1BFE0BC0
00006FF9
ENDCHAR
STARTCHAR L
ENCODING 76
SWIDTH 712 0
DWIDTH 10 0
BBX 11 11 -1 0
BITMAP
6FFE40
03F000
02E000
02E000
02E000
02E004
02E008
02E01C
01E02C
06FABC
2AAAA4
ENDCHAR
STARTCHAR M
ENCODING 77
SWIDTH 1033 0
DWIDTH 14 0
BBX 16 11 -1 -1
BITMAP
6FF003FD
07F40BE0
03FC0FE0
03FD2FE0
02AF77E0
029FF3E0
028BD3D0
02C3C3D0
01C243D0
07E41BF9
55550000
ENDCHAR
STARTCHAR N
ENCODING 78
SWIDTH 840 0
DWIDTH 12 0
BBX 14 11 -1 0
BITMAP
00000010
6FE1FF90
07F81D00
03FD0D00
03BF4D00
039FCD00
0387ED00
0382FD00
0380BD00
07D02C00
6FFE4C00
ENDCHAR
STARTCHAR O
ENCODING 79
SWIDTH 808 0
DWIDTH 11 0
BBX 11 9 0 0
BITMAP
016900
1FEBD0
3E01F4
BC00BC
BC00BC
BC00BC
7D00F8
2F57E0
06FF40
ENDCHAR
STARTCHAR P
ENCODING 80
SWIDTH 746 0
DWIDTH 10 0
BBX 12 10 -1 -1
BITMAP
6FFA90
07E6BC
03D01E
03D07D
03FF90
03E000
03E000
03E000
1BF900
555500
ENDCHAR
STARTCHAR Q
ENCODING 81
SWIDTH 789 0
DWIDTH 11 0
BBX 12 13 0 -4
BITMAP
06FE40
2F97E0
7D01F4
7C00F8
BC00B8
7C00F4
3E02F0
1FAFD0
01AE00
001F40
000FE9
001FA4
00A400
ENDCHAR
STARTCHAR R
ENCODING 82
SWIDTH 826 0
DWIDTH 12 0
BBX 16 13 -1 -4
BITMAP
6FFE9000
03E5BD00
03D01E00
03D07D00
02FFE000
02E1E000
02E0F400
02E07D00
1BF92E00
15551FE9
00001F90
00002800
00004000
ENDCHAR
STARTCHAR S
ENCODING 83
SWIDTH 661 0
DWIDTH 9 0
BBX 9 11 0 -1
BITMAP
000040
1FF980
B81B80
B80180
BF9040
2FFE00
01BF80
200BC0
380BC0
6BBE00
415000
ENDCHAR
STARTCHAR T
ENCODING 84
SWIDTH 754 0
DWIDTH 11 0
BBX 10 11 0 -1
BITMAP
555550
7FFFF0
70F4A0
60F460
10F410
00F400
00F400
00F400
00F400
0BFE00
055540
ENDCHAR
STARTCHAR U
ENCODING 85
SWIDTH 725 0
DWIDTH 10 0
BBX 12 11 -1 -1
BITMAP
000150
6AA1BD
0F8034
0F8034
0F8034
0F8034
0F8034
0F8030
07D0A0
02FF80
001400
ENDCHAR
STARTCHAR V
ENCODING 86
SWIDTH 786 0
DWIDTH 11 0
BBX 14 11 -2 -1
BITMAP
00690000
6FE01EA0
02F00740
01F40D00
00B81C00
007D3400
002E7000
001FD000
000B8000
00074000
00020000
ENDCHAR
STARTCHAR W
ENCODING 87
SWIDTH 1026 0
DWIDTH 14 0
BBX 18 10 -2 -1
BITMAP
6AF901AA50
07E0300E40
02F0780C00
00F4BD2800
00B9FE3400
007EDFB000
003F8FE000
001F47D000
000E038000
0009014000
ENDCHAR
STARTCHAR X
ENCODING 88
SWIDTH 860 0
DWIDTH 12 0
BBX 14 10 -1 -1
BITMAP
05590000
1BF0BF40
01F87400
007ED000
002F4000
003FC000
01E7F000
0781F800
6FD0BE40
0002AA50
ENDCHAR
STARTCHAR Y
ENCODING 89
SWIDTH 848 0
DWIDTH 12 0
BBX 13 10 -1 -1
BITMAP
BFE04000
07D06F80
01F42800
00BDA000
002F8000
000F0000
000F4000
000F4000
000F8000
007FF800
ENDCHAR
STARTCHAR Z
ENCODING 90
SWIDTH 685 0
DWIDTH 10 0
BBX 10 9 0 0
BITMAP
555690
BFFFD0
702F40
207E00
11F810
07F050
0FD0D0
2FE6D0
6AAA80
ENDCHAR
STARTCHAR bracketleft
ENCODING 91
SWIDTH 380 0
DWIDTH 5 0
BBX 5 14 1 -2
BITMAP
5540
FE00
F000
F000
F000
F000
F000
F000
F000
F000
F000
F000
F800
AA40
ENDCHAR
STARTCHAR backslash
ENCODING 92
SWIDTH 680 0
DWIDTH 10 0
BBX 9 13 0 -1
BITMAP
780000
BD0000
3F0000
1F4000
0BC000
03E000
01F400
00B800
007D00
002F00
000F80
0007C0
000280
ENDCHAR
STARTCHAR bracketright
ENCODING 93
SWIDTH 371 0
DWIDTH 5 0
BBX 6 14 -1 -2
BITMAP
5550
1BE0
02E0
02E0
02E0
02D0
02D0
02D0
02D0
02D0
02D0
01D0
07D0
1A90
ENDCHAR
STARTCHAR asciicircum
ENCODING 94
SWIDTH 671 0
DWIDTH 9 0
BBX 9 8 0 4
BITMAP
00C000
02E000
07F400
0BFC00
1F5E00
3E0740
BD02C0
B80040
ENDCHAR
STARTCHAR underscore
ENCODING 95
SWIDTH 840 0
DWIDTH 12 0
BBX 12 3 0 -2
BITMAP
FFFFFE
FFFFFE
555555
ENDCHAR
STARTCHAR grave
ENCODING 96
SWIDTH 707 0
DWIDTH 10 0
BBX 3 4 4 8
BITMAP
10
B4
78
24
ENDCHAR
STARTCHAR a
ENCODING 97
SWIDTH 572 0
DWIDTH 8 0
BBX 8 9 0 -1
BITMAP
0690
3D78
782D
242D
2EBD
B83C
7DBC
1ABE
0015
ENDCHAR
STARTCHAR b
ENCODING 98
SWIDTH 723 0
DWIDTH 10 0
BBX 12 13 -2 -2
BITMAP
005000
6FF000
02F000
01F000
01F000
01F000
01F140
01FFF8
01E07E
01E01F
01E02E
01E5B8
0BFA90
ENDCHAR
STARTCHAR c
ENCODING 99
SWIDTH 589 0
DWIDTH 8 0
BBX 8 8 0 -1
BITMAP
06E4
2E6E
7C1F
B805
BC00
7D02
2FAD
06A4
ENDCHAR
STARTCHAR d
ENCODING 100
SWIDTH 713 0
DWIDTH 10 0
BBX 11 14 0 -3
BITMAP
001AA0
0002E0
0002E0
0002E0
0003D0
0153D0
1FFFC0
3D07C0
7803C0
780380
3D0780
0BFF80
0057E4
000100
ENDCHAR
STARTCHAR e
ENCODING 101
SWIDTH 593 0
DWIDTH 8 0
BBX 8 8 0 -1
BITMAP
0150
1FF8
3D1E
795F
BFFF
7800
2E59
06A4
ENDCHAR
STARTCHAR f
ENCODING 102
SWIDTH 507 0
DWIDTH 7 0
BBX 9 20 -1 -6
BITMAP
001400
00BF40
02D380
03C3C0
03C000
03C000
03D000
2FFF00
16E500
02E000
01E000
01E000
01F000
00F000
00F000
00F400
B4B000
B4F000
3AD000
064000
ENDCHAR
STARTCHAR g
ENCODING 103
SWIDTH 606 0
DWIDTH 8 0
BBX 9 16 0 -7
BITMAP
000640
001FC0
0BFA80
3D2D00
780F00
B40F00
780F00
2D2D00
2FE400
3E5000
2FFE00
780B80
F407C0
F407C0
7D5F40
1BF900
ENDCHAR
STARTCHAR h
ENCODING 104
SWIDTH 678 0
DWIDTH 10 0
BBX 11 13 -1 -1
BITMAP
5AC000
6FC000
0BC000
0BC000
07C000
078000
07E940
07EBD0
0781F0
0780F0
0780F0
1FE0E0
0006F8
ENDCHAR
STARTCHAR i
ENCODING 105
SWIDTH 393 0
DWIDTH 6 0
BBX 6 11 0 0
BITMAP
0F40
1F80
0A00
5500
6F80
0B40
0B40
0B40
0B40
0B40
7FD0
ENDCHAR
STARTCHAR j
ENCODING 106
SWIDTH 385 0
DWIDTH 5 0
BBX 6 16 -1 -5
BITMAP
0100
0F80
0F80
0600
1680
1BD0
02D0
02D0
02E0
01E0
01E0
01E0
60E0
F0E0
B6D0
1A40
ENDCHAR
STARTCHAR k
ENCODING 107
SWIDTH 749 0
DWIDTH 10 0
BBX 13 14 -1 -2
BITMAP
01400000
6FC00000
0BC00000
07C7FE00
07C2E000
07CB4000
07EE0000
07FF0000
03C78000
03C2D000
03C0F000
1FF47900
0001E940
00010000
ENDCHAR
STARTCHAR l
ENCODING 108
SWIDTH 369 0
DWIDTH 5 0
BBX 7 13 -1 -1
BITMAP
6FC0
0BC0
07C0
07C0
07C0
07C0
07C0
07C0
0380
0380
0380
0380
1FE4
ENDCHAR
STARTCHAR m
ENCODING 109
SWIDTH 990 0
DWIDTH 14 0
BBX 16 7 -1 1
BITMAP
05850140
6FFFEFE0
07D2F5F0
0781E0B0
0381D0B0
0781D1F4
1556E555
ENDCHAR
STARTCHAR n
ENCODING 110
SWIDTH 643 0
DWIDTH 9 0
BBX 11 7 -1 1
BITMAP
058500
6FFFC0
07D2E0
0781E0
0381E0
0781D0
1556E4
ENDCHAR
STARTCHAR o
ENCODING 111
SWIDTH 705 0
DWIDTH 10 0
BBX 10 7 0 0
BITMAP
06A400
2F9F80
B803D0
B402E0
B802E0
7D07C0
0BFE00
ENDCHAR
STARTCHAR p
ENCODING 112
SWIDTH 723 0
DWIDTH 10 0
BBX 11 12 -1 -4
BITMAP
5A8000
6FEA40
07E6F4
07C078
07C03C
07C078
03EAF0
03DA40
03C000
03C000
1BE400
555400
ENDCHAR
STARTCHAR q
ENCODING 113
SWIDTH 682 0
DWIDTH 10 0
BBX 11 11 0 -3
BITMAP
000BF4
1BFF80
7D1F40
B40B40
B40B40
B80F40
2FFF40
015F40
000F00
000F00
00BFE4
ENDCHAR
STARTCHAR r
ENCODING 114
SWIDTH 595 0
DWIDTH 8 0
BBX 10 9 -1 0
BITMAP
001000
6BEBD0
17FBE0
03E190
02D000
02D000
02D000
02E400
1FA900
ENDCHAR
STARTCHAR s
ENCODING 115
SWIDTH 533 0
DWIDTH 7 0
BBX 8 9 0 0
BITMAP
0100
2FD8
B47C
B908
7FD4
0BFC
607D
B96D
9BE4
ENDCHAR
STARTCHAR t
ENCODING 116
SWIDTH 422 0
DWIDTH 6 0
BBX 7 14 0 -1
BITMAP
0200
0700
0A00
6E00
FFF4
2E50
2D00
3D00
3D00
3C00
3C10
3D60
2FD0
0500
ENDCHAR
STARTCHAR u
ENCODING 117
SWIDTH 614 0
DWIDTH 9 0
BBX 10 8 -1 -1
BITMAP
7F1A90
1F07D0
0F03C0
0F03C0
0F0380
0B4B80
07FBD0
000250
ENDCHAR
STARTCHAR v
ENCODING 118
SWIDTH 639 0
DWIDTH 9 0
BBX 11 9 -1 -1
BITMAP
015000
BF5954
0F46E4
07C280
03D700
01EA00
00BC00
007800
002000
ENDCHAR
STARTCHAR w
ENCODING 119
SWIDTH 805 0
DWIDTH 11 0
BBX 14 8 -1 0
BITMAP
6A901950
2F460F40
0B8B0D00
07DFAC00
03FBF400
01F6F000
00E1D000
00508000
ENDCHAR
STARTCHAR x
ENCODING 120
SWIDTH 717 0
DWIDTH 10 0
BBX 12 9 -1 -1
BITMAP
05A400
6BC6A9
02E2D0
00FE00
007D00
01EF40
1BC7C0
1556F9
000550
ENDCHAR
STARTCHAR y
ENCODING 121
SWIDTH 655 0
DWIDTH 9 0
BBX 10 15 -1 -7
BITMAP
500000
2E5A90
0F87E0
1F42E0
1F02E0
1F02E0
0FEBE0
02ABD0
0002D0
0002D0
0903D0
1E07C0
1E0B80
07FE00
005000
ENDCHAR
STARTCHAR z
ENCODING 122
SWIDTH 549 0
DWIDTH 8 0
BBX 8 9 0 -1
BITMAP
0555
BFFE
60BC
61F4
17D1
0F85
2F4D
7FFD
0004
ENDCHAR
STARTCHAR braceleft
ENCODING 123
SWIDTH 708 0
DWIDTH 10 0
BBX 8 14 1 -2
BITMAP
0555
0BE4
0B80
0780
0780
0780
1B80
6F80
0780
0780
0780
0780
07D0
02A8
ENDCHAR
STARTCHAR bar
ENCODING 124
SWIDTH 304 0
DWIDTH 4 0
BBX 3 13 1 -1
BITMAP
A4
F4
F4
F4
F4
F4
F4
F4
F4
F0
F0
F0
F0
ENDCHAR
STARTCHAR braceright
ENCODING 125
SWIDTH 517 0
DWIDTH 7 0
BBX 8 14 0 -2
BITMAP
5540
1FD0
03D0
03D0
03D0
03D0
03E4
03F9
02C0
02C0
02C0
02C0
07C0
2A80
ENDCHAR
STARTCHAR asciitilde
ENCODING 126
SWIDTH 466 0
DWIDTH 7 0
BBX 7 3 0 3
BITMAP
6914
FFF8
96E4
ENDCHAR
STARTCHAR uni00A0
ENCODING 160
SWIDTH 320 0
DWIDTH 4 0
BBX 1 1 0 0
BITMAP
00
ENDCHAR
STARTCHAR exclamdown
ENCODING 161
SWIDTH 305 0
DWIDTH 4 0
BBX 5 13 0 -5
BITMAP
0900
1F40
0500
1D00
1D00
2D00
2D00
3D00
7D00
7D00
BC00
BC00
1400
ENDCHAR
STARTCHAR cent
ENCODING 162
SWIDTH 417 0
DWIDTH 6 0
BBX 6 12 0 -2
BITMAP
0B00
0B00
1F80
74E0
E0A0
E000
E010
B460
2F80
0B00
0B00
0500
ENDCHAR
STARTCHAR sterling
ENCODING 163
SWIDTH 658 0
DWIDTH 9 0
BBX 10 11 0 -1
BITMAP
001040
07FDC0
1F5B80
1E0280
FFF880
AF9440
ABA410
AFF890
0F01D0
1FFFC0
155A80
ENDCHAR
STARTCHAR currency
ENCODING 164
SWIDTH 358 0
DWIDTH 5 0
BBX 5 5 0 3
BITMAP
1000
BF80
7740
7B40
BB80
ENDCHAR
STARTCHAR yen
ENCODING 165
SWIDTH 796 0
DWIDTH 11 0
BBX 12 9 -1 0
BITMAP
AF4155
0B80B9
02E1C0
00BB00
017D40
02BE80
02FFC0
002D00
01AA90
ENDCHAR
STARTCHAR brokenbar
ENCODING 166
SWIDTH 304 0
DWIDTH 4 0
BBX 3 13 1 -1
BITMAP
A4
F4
F4
F4
F4
50
00
50
F0
F0
F0
F0
F0
ENDCHAR
STARTCHAR section
ENCODING 167
SWIDTH 646 0
DWIDTH 9 0
BBX 9 17 0 -4
BITMAP
014000
1FF500
381F00
780700
7E0100
2FE400
1FFE00
387F40
780B40
7E4B40
2FFD00
07FE00
107F40
300B40
7D0B40
6BFD00
400000
ENDCHAR
STARTCHAR dieresis
ENCODING 168
SWIDTH 708 0
DWIDTH 10 0
BBX 4 2 3 11
BITMAP
DB
41
ENDCHAR
STARTCHAR copyright
ENCODING 169
SWIDTH 700 0
DWIDTH 10 0
BBX 10 10 0 0
BITMAP
015400
1FAE40
7852C0
A358E0
D704A0
E700A0
A398D0
3852C0
1BAE00
015000
ENDCHAR
STARTCHAR ordfeminine
ENCODING 170
SWIDTH 399 0
DWIDTH 6 0
BBX 6 6 0 5
BITMAP
7F40
A280
6BC0
E780
BB80
0690
ENDCHAR
STARTCHAR guillemotleft
ENCODING 171
SWIDTH 424 0
DWIDTH 6 0
BBX 6 7 0 0
BITMAP
0810
1CA0
75D0
B780
76C0
28D0
0C60
ENDCHAR
STARTCHAR logicalnot
ENCODING 172
SWIDTH 541 0
DWIDTH 8 0
BBX 8 7 0 1
BITMAP
4000
8005
BFFD
BFFD
801C
400C
002E
ENDCHAR
STARTCHAR sfthyphen
ENCODING 173
SWIDTH 530 0
DWIDTH 7 0
BBX 8 3 0 3
BITMAP
FFE9
FFFD
5554
ENDCHAR
STARTCHAR registered
ENCODING 174
SWIDTH 700 0
DWIDTH 10 0
BBX 10 10 0 0
BITMAP
005000
1BFE00
7802C0
B2EDE0
D0D4A0
E0C0A0
A0D0E0
7556C0
1EAE00
015400
ENDCHAR
STARTCHAR macron
ENCODING 175
SWIDTH 705 0
DWIDTH 10 0
BBX 5 2 3 10
BITMAP
7F40
7F40
ENDCHAR
STARTCHAR degree
ENCODING 176
SWIDTH 364 0
DWIDTH 5 0
BBX 5 4 0 6
BITMAP
2E00
7740
3B40
1900
ENDCHAR
STARTCHAR plusminus
ENCODING 177
SWIDTH 607 0
DWIDTH 9 0
BBX 8 9 0 0
BITMAP
0290
03D0
BFFA
BFFF
16D0
02C0
5550
BFFF
BEAA
ENDCHAR
STARTCHAR twosuperior
ENCODING 178
SWIDTH 440 0
DWIDTH 6 0
BBX 6 8 0 5
BITMAP
4100
6FD0
74F0
20E0
17D0
2D20
BAA0
AAA0
ENDCHAR
STARTCHAR threesuperior
ENCODING 179
SWIDTH 442 0
DWIDTH 6 0
BBX 6 8 0 4
BITMAP
9A80
7AE0
20E0
0BE0
15F0
75F0
AFD0
4000
ENDCHAR
STARTCHAR acute
ENCODING 180
SWIDTH 694 0
DWIDTH 10 0
BBX 3 4 4 10
BITMAP
10
78
B0
50
ENDCHAR
STARTCHAR mu
ENCODING 181
SWIDTH 1000 0
DWIDTH 14 0
BBX 11 11 0 -4
BITMAP
6F5A90
0F42E0
0B42D0
0B02D0
0B02C0
0B87C0
0BFFE4
0B0150
0B0000
0B0000
060000
ENDCHAR
STARTCHAR paragraph
ENCODING 182
SWIDTH 782 0
DWIDTH 11 0
BBX 12 11 -1 -1
BITMAP
000015
06FFF9
3E6DD0
782CD0
2E7DD0
01BFD0
0029D0
0029D0
002AD0
007FF9
055550
ENDCHAR
STARTCHAR periodcentered
ENCODING 183
SWIDTH 226 0
DWIDTH 3 0
BBX 3 3 0 4
BITMAP
10
BC
78
ENDCHAR
STARTCHAR cedilla
ENCODING 184
SWIDTH 780 0
DWIDTH 11 0
BBX 3 5 4 -3
BITMAP
20
B4
5C
AC
64
ENDCHAR
STARTCHAR onesuperior
ENCODING 185
SWIDTH 390 0
DWIDTH 5 0
BBX 5 7 0 5
BITMAP
5B00
1F00
0B00
0B00
0B00
0B00
2F80
ENDCHAR
STARTCHAR ordmasculine
ENCODING 186
SWIDTH 449 0
DWIDTH 6 0
BBX 8 5 -1 6
BITMAP
0690
2D7C
781D
382D
1BF4
ENDCHAR
STARTCHAR guillemotright
ENCODING 187
SWIDTH 415 0
DWIDTH 6 0
BBX 6 7 0 0
BITMAP
8200
A340
76C0
2DE0
39D0
7280
9300
ENDCHAR
STARTCHAR onequarter
ENCODING 188
SWIDTH 918 0
DWIDTH 13 0
BBX 13 14 0 -2
BITMAP
5B001D00
1F003C00
0B00B800
0B00F000
0B02D000
0B078500
2F8F0D00
002D2D00
0038BD40
00B6EE40
01E7FF40
02C02D40
07407E00
06015500
ENDCHAR
STARTCHAR onehalf
ENCODING 189
SWIDTH 1007 0
DWIDTH 14 0
BBX 14 14 0 -2
BITMAP
5B001D00
1F003C00
0B00B800
0B00F000
0B02D000
0B078000
2F8F4000
002D6FD0
003875E0
00B460E0
01E017D0
02C02D20
0740BAA0
0600AFE0
ENDCHAR
STARTCHAR threequarters
ENCODING 190
SWIDTH 936 0
DWIDTH 13 0
BBX 13 14 0 -2
BITMAP
9A800E00
7AE02D00
20E07800
0BE0F000
15F1E000
75F3C100
AFDB4900
401E2D00
002C7D40
0075EE80
00E7FF80
02D01D40
07806E40
06005540
ENDCHAR
STARTCHAR questiondown
ENCODING 191
SWIDTH 568 0
DWIDTH 8 0
BBX 8 12 0 -4
BITMAP
003D
003E
0014
0074
00F4
2FF4
BD10
F400
F401
B802
2FAE
0159
ENDCHAR
STARTCHAR Agrave
ENCODING 192
SWIDTH 788 0
DWIDTH 11 0
BBX 16 17 -2 -3
BITMAP
00050000
001E0000
000B0000
00060000
01550000
007F8000
000BC000
000FD000
001EF000
0034F400
0075BC00
00FFFD00
02802F00
0B801F40
6AE00FD0
00000FF9
00002940
ENDCHAR
STARTCHAR Aacute
ENCODING 193
SWIDTH 788 0
DWIDTH 11 0
BBX 16 17 -2 -3
BITMAP
00010000
0003C000
00074000
00020000
01550000
007F8000
000BC000
000FD000
001EF000
0034F400
0075BC00
00FFFD00
02802F00
0B801F40
6AE00FD0
00000FF9
00002940
ENDCHAR
STARTCHAR Acircumflex
ENCODING 194
SWIDTH 788 0
DWIDTH 11 0
BBX 16 17 -2 -3
BITMAP
00020000
000BC000
002DE000
00101000
01550000
007F8000
000BC000
000FD000
001EF000
0034F400
0075BC00
00FFFD00
02802F00
0B801F40
6AE00FD0
00000FF9
00002940
ENDCHAR
STARTCHAR Atilde
ENCODING 195
SWIDTH 788 0
DWIDTH 11 0
BBX 16 16 -2 -3
BITMAP
00040000
001FA000
0016E000
01550000
007F8000
000BC000
000FD000
001EF000
0034F400
0075BC00
00FFFD00
02802F00
0B801F40
6AE00FD0
00000FF9
00002940
ENDCHAR
STARTCHAR Adieresis
ENCODING 196
SWIDTH 788 0
DWIDTH 11 0
BBX 16 15 -2 -3
BITMAP
001CE000
00044000
01550000
007F8000
000BC000
000FD000
001EF000
0034F400
0075BC00
00FFFD00
02802F00
0B801F40
6AE00FD0
00000FF9
00002940
ENDCHAR
STARTCHAR Aring
ENCODING 197
SWIDTH 788 0
DWIDTH 11 0
BBX 16 15 -2 -3
BITMAP
00064000
0009C000
015B8000
007F4000
000BC000
000FD000
001EF000
0034F400
0075BC00
00FFFD00
02802F00
0B801F40
6AE00FD0
00000FF9
00002940
ENDCHAR
STARTCHAR AE
ENCODING 198
SWIDTH 1019 0
DWIDTH 14 0
BBX 17 11 -3 -1
BITMAP
006AABFF80
001FFE5780
0007BD0180
000B3D2080
001D3D7000
00383FF000
00BABEA040
00FABD2140
02803D0240
1B41BFFF40
6AA5555500
ENDCHAR
STARTCHAR Ccedilla
ENCODING 199
SWIDTH 766 0
DWIDTH 11 0
BBX 11 15 0 -5
BITMAP
016914
0BFFB4
2F41F0
7D0030
BC0010
BC0000
BC0000
7D0010
2F4070
0BEBE0
01BA44
00A000
006800
00AC00
00A400
ENDCHAR
STARTCHAR Egrave
ENCODING 200
SWIDTH 781 0
DWIDTH 11 0
BBX 12 16 -1 -1
BITMAP
000400
003C00
001D00
000900
000000
56ABFD
1BE55D
03E00D
02E145
02E240
02FF40
02EB44
02E248
02E01C
1BFFFC
155554
ENDCHAR
STARTCHAR Eacute
ENCODING 201
SWIDTH 781 0
DWIDTH 11 0
BBX 12 15 -1 -1
BITMAP
000500
000B40
000E00
000500
56ABFD
1BE55D
03E00D
02E145
02E240
02FF40
02EB44
02E248
02E01C
1BFFFC
155554
ENDCHAR
STARTCHAR Ecircumflex
ENCODING 202
SWIDTH 781 0
DWIDTH 11 0
BBX 12 15 -1 -1
BITMAP
001800
003E00
00A740
004000
56ABFD
1BE55D
03E00D
02E145
02E240
02FF40
02EB44
02E248
02E01C
1BFFFC
155554
ENDCHAR
STARTCHAR Edieresis
ENCODING 203
SWIDTH 781 0
DWIDTH 11 0
BBX 12 13 -1 -1
BITMAP
007380
001100
56ABFD
1BE55D
03E00D
02E145
02E240
02FF40
02EB44
02E248
02E01C
1BFFFC
155554
ENDCHAR
STARTCHAR Igrave
ENCODING 204
SWIDTH 445 0
DWIDTH 6 0
BBX 8 17 -1 -2
BITMAP
0140
0780
03C0
0180
0000
6AA9
0BE4
03E0
03E0
03D0
02D0
02D0
02D0
02D0
02D0
1BF8
1555
ENDCHAR
STARTCHAR Iacute
ENCODING 205
SWIDTH 445 0
DWIDTH 6 0
BBX 8 16 -1 -2
BITMAP
0050
00F0
01D0
0080
6AA9
0BE4
03E0
03E0
03D0
02D0
02D0
02D0
02D0
02D0
1BF8
1555
ENDCHAR
STARTCHAR Icircumflex
ENCODING 206
SWIDTH 445 0
DWIDTH 6 0
BBX 8 16 -1 -2
BITMAP
0180
03E0
0A74
0404
6AA9
0BE4
03E0
03E0
03D0
02D0
02D0
02D0
02D0
02D0
1BF8
1555
ENDCHAR
STARTCHAR Idieresis
ENCODING 207
SWIDTH 445 0
DWIDTH 6 0
BBX 8 14 -1 -2
BITMAP
0A74
0510
6AA9
0BE4
03E0
03E0
03D0
02D0
02D0
02D0
02D0
02D0
1BF8
1555
ENDCHAR
STARTCHAR Eth
ENCODING 208
SWIDTH 1000 0
DWIDTH 14 0
BBX 14 11 0 -1
BITMAP
55554000
1BFFFD00
00F81F40
00F807C0
15F803D0
2FFFC3D0
15F943D0
00B407C0
00B41F40
06FFF900
05540000
ENDCHAR
STARTCHAR Ntilde
ENCODING 209
SWIDTH 840 0
DWIDTH 12 0
BBX 14 13 -1 0
BITMAP
007EC000
006B8000
00000010
6FE1FF90
07F81D00
03FD0D00
03BF4D00
039FCD00
0387ED00
0382FD00
0380BD00
07D02C00
6FFE4C00
ENDCHAR
STARTCHAR Ograve
ENCODING 210
SWIDTH 808 0
DWIDTH 11 0
BBX 11 14 0 0
BITMAP
001400
007800
003C00
001800
000000
016900
1FEBD0
3E01F4
BC00BC
BC00BC
BC00BC
7D00F8
2F57E0
06FF40
ENDCHAR
STARTCHAR Oacute
ENCODING 211
SWIDTH 808 0
DWIDTH 11 0
BBX 11 13 0 0
BITMAP
001400
002D00
003800
001400
016900
1FEBD0
3E01F4
BC00BC
BC00BC
BC00BC
7D00F8
2F57E0
06FF40
ENDCHAR
STARTCHAR Ocircumflex
ENCODING 212
SWIDTH 808 0
DWIDTH 11 0
BBX 11 13 0 0
BITMAP
002400
00BC00
01DA00
000100
016900
1FEBD0
3E01F4
BC00BC
BC00BC
BC00BC
7D00F8
2F57E0
06FF40
ENDCHAR
STARTCHAR Otilde
ENCODING 213
SWIDTH 808 0
DWIDTH 11 0
BBX 11 12 0 0
BITMAP
01FB00
01AE00
000000
016900
1FEBD0
3E01F4
BC00BC
BC00BC
BC00BC
7D00F8
2F57E0
06FF40
ENDCHAR
STARTCHAR Odieresis
ENCODING 214
SWIDTH 808 0
DWIDTH 11 0
BBX 11 11 0 0
BITMAP
01DE00
004500
016900
1FEBD0
3E01F4
BC00BC
BC00BC
BC00BC
7D00F8
2F57E0
06FF40
ENDCHAR
STARTCHAR multiply
ENCODING 215
SWIDTH 556 0
DWIDTH 8 0
BBX 8 8 0 1
BITMAP
1000
782C
7EBD
1FF4
0BE0
2FF8
BC7D
2018
ENDCHAR
STARTCHAR Oslash
ENCODING 216
SWIDTH 808 0
DWIDTH 11 0
BBX 11 12 0 -2
BITMAP
000190
016BE0
1FEFD0
3E0FF4
BC2EBC
BC7CBC
BCB4BC
7EE0F8
2FD7E0
0BFF40
0E0000
050000
ENDCHAR
STARTCHAR Ugrave
ENCODING 217
SWIDTH 725 0
DWIDTH 10 0
BBX 12 15 -1 -1
BITMAP
001400
003C00
002D00
000900
000150
6AA1BD
0F8034
0F8034
0F8034
0F8034
0F8034
0F8030
07D0A0
02FF80
001400
ENDCHAR
STARTCHAR Uacute
ENCODING 218
SWIDTH 725 0
DWIDTH 10 0
BBX 12 15 -1 -1
BITMAP
000400
001E00
002C00
001400
000150
6AA1BD
0F8034
0F8034
0F8034
0F8034
0F8034
0F8030
07D0A0
02FF80
001400
ENDCHAR
STARTCHAR Ucircumflex
ENCODING 219
SWIDTH 725 0
DWIDTH 10 0
BBX 12 15 -1 -1
BITMAP
001800
003E00
00A740
004000
000150
6AA1BD
0F8034
0F8034
0F8034
0F8034
0F8034
0F8030
07D0A0
02FF80
001400
ENDCHAR
STARTCHAR Udieresis
ENCODING 220
SWIDTH 725 0
DWIDTH 10 0
BBX 12 13 -1 -1
BITMAP
007380
001100
000150
6AA1BD
0F8034
0F8034
0F8034
0F8034
0F8034
0F8030
07D0A0
02FF80
001400
ENDCHAR
STARTCHAR Yacute
ENCODING 221
SWIDTH 848 0
DWIDTH 12 0
BBX 13 15 -1 -1
BITMAP
00014000
0002D000
00038000
00014000
00000000
BFE04000
07D06F80
01F42800
00BDA000
002F8000
000F0000
000F4000
000F4000
000F8000
007FF800
ENDCHAR
STARTCHAR Thorn
ENCODING 222
SWIDTH 745 0
DWIDTH 10 0
BBX 12 10 -1 -1
BITMAP
6FF900
07D000
03FFA0
03D57D
03D01E
03D5B8
03FE90
03E000
1BF900
555500
ENDCHAR
STARTCHAR germandbls
ENCODING 223
SWIDTH 986 0
DWIDTH 14 0
BBX 15 19 -1 -6
BITMAP
002F8000
00B5B400
01D03800
02D02C00
02C02C00
03D03C00
2FD0B400
16D1F000
02E1E000
01E1F400
01E0BF40
00F02FF4
00F081FC
00F1E478
00F5AFE0
B4F10000
B4F00000
3AD00000
06400000
ENDCHAR
STARTCHAR agrave
ENCODING 224
SWIDTH 572 0
DWIDTH 8 0
BBX 8 14 0 -1
BITMAP
0050
00F0
00B4
0024
0000
0690
3D78
782D
242D
2EBD
B83C
7DBC
1ABE
0015
ENDCHAR
STARTCHAR aacute
ENCODING 225
SWIDTH 572 0
DWIDTH 8 0
BBX 8 13 0 -1
BITMAP
0050
00B4
00E0
0050
0690
3D78
782D
242D
2EBD
B83C
7DBC
1ABE
0015
ENDCHAR
STARTCHAR acircumflex
ENCODING 226
SWIDTH 572 0
DWIDTH 8 0
BBX 8 13 0 -1
BITMAP
0090
02F0
0B68
0404
0690
3D78
782D
242D
2EBD
B83C
7DBC
1ABE
0015
ENDCHAR
STARTCHAR atilde
ENCODING 227
SWIDTH 572 0
DWIDTH 8 0
BBX 8 13 0 -1
BITMAP
0100
07E8
05B8
0000
0690
3D78
782D
242D
2EBD
B83C
7DBC
1ABE
0015
ENDCHAR
STARTCHAR adieresis
ENCODING 228
SWIDTH 572 0
DWIDTH 8 0
BBX 8 11 0 -1
BITMAP
0A74
0510
0690
3D78
782D
242D
2EBD
B83C
7DBC
1ABE
0015
ENDCHAR
STARTCHAR aring
ENCODING 229
SWIDTH 572 0
DWIDTH 8 0
BBX 8 12 0 -1
BITMAP
0040
02B0
02B0
06E0
3D78
782D
242D
2EBD
B83C
7DBC
1ABE
0015
ENDCHAR
STARTCHAR ae
ENCODING 230
SWIDTH 1022 0
DWIDTH 14 0
BBX 14 9 0 -1
BITMAP
0A900400
79B9FF80
B83FD1E0
643F95F0
7EFFEAA0
F47FC010
B9B9FF80
1ABD1400
00550000
ENDCHAR
STARTCHAR ccedilla
ENCODING 231
SWIDTH 589 0
DWIDTH 8 0
BBX 8 12 0 -5
BITMAP
06E4
2E6E
7C1F
B805
7C00
7D02
2FAD
06E4
0280
01A0
02B0
0290
ENDCHAR
STARTCHAR egrave
ENCODING 232
SWIDTH 593 0
DWIDTH 8 0
BBX 8 12 0 -1
BITMAP
0050
01E0
00B0
0060
0150
1FF8
3D1E
795F
BFFF
7800
2E59
06A4
ENDCHAR
STARTCHAR eacute
ENCODING 233
SWIDTH 593 0
DWIDTH 8 0
BBX 8 12 0 -1
BITMAP
0050
00B0
00E0
0080
0150
1FF8
3D1E
795F
BFFF
7800
2E59
06A4
ENDCHAR
STARTCHAR ecircumflex
ENCODING 234
SWIDTH 593 0
DWIDTH 8 0
BBX 8 12 0 -1
BITMAP
0090
02F0
0B68
0404
0150
1FF8
3D1E
795F
BFFF
7800
2E59
06A4
ENDCHAR
STARTCHAR edieresis
ENCODING 235
SWIDTH 593 0
DWIDTH 8 0
BBX 8 10 0 -1
BITMAP
0768
0114
0150
1FF8
3D1E
795F
BFFF
7800
2E59
06A4
ENDCHAR
STARTCHAR igrave
ENCODING 236
SWIDTH 393 0
DWIDTH 6 0
BBX 6 12 0 0
BITMAP
0500
1E00
0F00
0600
5500
6F80
0B40
0B40
0B40
0B40
0B40
7FD0
ENDCHAR
STARTCHAR iacute
ENCODING 237
SWIDTH 393 0
DWIDTH 6 0
BBX 6 12 0 0
BITMAP
0100
03C0
0740
0600
5500
6F80
0B40
0B40
0B40
0B40
0B40
7FD0
ENDCHAR
STARTCHAR icircumflex
ENCODING 238
SWIDTH 393 0
DWIDTH 6 0
BBX 6 12 0 0
BITMAP
0600
1F80
39D0
1000
5500
6F80
0B40
0B40
0B40
0B40
0B40
7FD0
ENDCHAR
STARTCHAR idieresis
ENCODING 239
SWIDTH 393 0
DWIDTH 6 0
BBX 6 10 0 0
BITMAP
2CD0
0440
5500
6F80
0B40
0B40
0B40
0B40
0B40
7FD0
ENDCHAR
STARTCHAR eth
ENCODING 240
SWIDTH 672 0
DWIDTH 9 0
BBX 10 13 0 -2
BITMAP
060640
01EE00
01FC00
0BEE00
020F40
015B80
2FAFC0
B807D0
F403D0
F403D0
B80780
2FBE00
015000
ENDCHAR
STARTCHAR ntilde
ENCODING 241
SWIDTH 643 0
DWIDTH 9 0
BBX 11 10 -1 1
BITMAP
00FF40
009F00
000000
058500
6FFFC0
07D2E0
0781E0
0381E0
0781D0
1556E4
ENDCHAR
STARTCHAR ograve
ENCODING 242
SWIDTH 705 0
DWIDTH 10 0
BBX 10 11 0 0
BITMAP
001000
00F000
007400
002400
06A400
2F9F80
B803D0
B402E0
B802E0
7D07C0
0BFE00
ENDCHAR
STARTCHAR oacute
ENCODING 243
SWIDTH 705 0
DWIDTH 10 0
BBX 10 11 0 0
BITMAP
001000
007800
00B000
005000
06A400
2F9F80
B803D0
B402E0
B802E0
7D07C0
0BFE00
ENDCHAR
STARTCHAR ocircumflex
ENCODING 244
SWIDTH 705 0
DWIDTH 10 0
BBX 10 11 0 0
BITMAP
006000
01F400
039D00
010000
06A400
2F9F80
B803D0
B402E0
B802E0
7D07C0
0BFE00
ENDCHAR
STARTCHAR otilde
ENCODING 245
SWIDTH 705 0
DWIDTH 10 0
BBX 10 11 0 0
BITMAP
004000
03F900
026D00
000000
06A400
2F9F80
B803D0
B402E0
B802E0
7D07C0
0BFE00
ENDCHAR
STARTCHAR odieresis
ENCODING 246
SWIDTH 705 0
DWIDTH 10 0
BBX 10 9 0 0
BITMAP
029D00
014400
06A400
2F9F80
B803D0
B402E0
B802E0
7D07C0
0BFE00
ENDCHAR
STARTCHAR divide
ENCODING 247
SWIDTH 504 0
DWIDTH 7 0
BBX 7 8 0 0
BITMAP
0780
0BC0
0140
FFA8
FFF8
0100
0BC0
0B80
ENDCHAR
STARTCHAR oslash
ENCODING 248
SWIDTH 705 0
DWIDTH 10 0
BBX 10 11 0 -2
BITMAP
000100
000740
06AF00
2FBF80
B87FD0
B4B6E0
B9E2E0
7FD7C0
1FFE00
0E0000
080000
ENDCHAR
STARTCHAR ugrave
ENCODING 249
SWIDTH 614 0
DWIDTH 9 0
BBX 10 13 -1 -1
BITMAP
005000
00F000
00B400
002400
000000
7F1A90
1F07D0
0F03C0
0F03C0
0F0380
0B4B80
07FBD0
000250
ENDCHAR
STARTCHAR uacute
ENCODING 250
SWIDTH 614 0
DWIDTH 9 0
BBX 10 13 -1 -1
BITMAP
001400
003C00
007400
002000
000000
7F1A90
1F07D0
0F03C0
0F03C0
0F0380
0B4B80
07FBD0
000250
ENDCHAR
STARTCHAR ucircumflex
ENCODING 251
SWIDTH 614 0
DWIDTH 9 0
BBX 10 12 -1 -1
BITMAP
002000
00B800
02DE00
010100
7F1A90
1F07D0
0F03C0
0F03C0
0F0380
0B4B80
07FBD0
000250
ENDCHAR
STARTCHAR udieresis
ENCODING 252
SWIDTH 614 0
DWIDTH 9 0
BBX 10 11 -1 -1
BITMAP
029D00
014400
000000
7F1A90
1F07D0
0F03C0
0F03C0
0F0380
0B4B80
07FBD0
000250
ENDCHAR
STARTCHAR yacute
ENCODING 253
SWIDTH 655 0
DWIDTH 9 0
BBX 10 19 -1 -7
BITMAP
001400
003C00
007400
002000
500000
2E5A90
0F87E0
1F42E0
1F02E0
1F02E0
0FEBE0
02ABD0
0002D0
0002D0
0903D0
1E07C0
1E0B80
07FE00
005000
ENDCHAR
STARTCHAR thorn
ENCODING 254
SWIDTH 734 0
DWIDTH 10 0
BBX 12 16 -1 -6
BITMAP
6A9000
1BD000
03D000
03D000
03D000
03E640
03FAF4
03D03D
03D02D
02D03D
02E5B8
02EB90
02D000
02D000
07E400
2AA900
ENDCHAR
STARTCHAR ydieresis
ENCODING 255
SWIDTH 655 0
DWIDTH 9 0
BBX 10 17 -1 -7
BITMAP
029D00
014400
500000
2E5A90
0F87E0
1F42E0
1F02E0
1F02E0
0FEBE0
02ABD0
0002D0
0002D0
0903D0
1E07C0
1E0B80
07FE00
005000
ENDCHAR
STARTCHAR dotlessi
ENCODING 305
SWIDTH 393 0
DWIDTH 6 0
BBX 6 8 0 0
BITMAP
5500
6F80
0B40
0B40
0B40
0B40
0B40
7FD0
ENDCHAR
STARTCHAR Lslash
ENCODING 321
SWIDTH 713 0
DWIDTH 10 0
BBX 11 11 -1 0
BITMAP
6FFE40
03F000
02E000
02F900
02FE00
1BF404
2FE008
02E01C
01E02C
06FABC
2AAAA4
ENDCHAR
STARTCHAR lslash
ENCODING 322
SWIDTH 365 0
DWIDTH 5 0
BBX 7 13 -1 -1
BITMAP
7FC0
0BC0
07C0
07C0
07E8
1BF4
7F80
7B80
0780
0780
0380
0780
2FE4
ENDCHAR
STARTCHAR OE
ENCODING 338
SWIDTH 1195 0
DWIDTH 17 0
BBX 16 11 0 -1
BITMAP
0015AAFF
0006FD57
06E8BC03
3E5FFC52
B807FC90
B403FFD0
B407FED1
7C0BF892
1FBEB806
0156FFFE
00155555
ENDCHAR
STARTCHAR oe
ENCODING 339
SWIDTH 1087 0
DWIDTH 15 0
BBX 15 8 0 -1
BITMAP
01500000
2FBD7FD0
B80BF5B4
B407D07C
B407FFFC
781FD000
1BF9F960
00006A80
ENDCHAR
STARTCHAR Scaron
ENCODING 352
SWIDTH 661 0
DWIDTH 9 0
BBX 9 15 0 -1
BITMAP
061800
03F400
01E000
004000
000040
1FF980
B81B80
B80180
BF9040
2FFE00
01BF80
200BC0
380BC0
6BBE00
415000
ENDCHAR
STARTCHAR scaron
ENCODING 353
SWIDTH 533 0
DWIDTH 7 0
BBX 8 13 0 0
BITMAP
1924
0BE0
02C0
0000
0100
2FD8
B47C
B908
7FD4
0BFC
607D
B96D
9BE4
ENDCHAR
STARTCHAR Ydieresis
ENCODING 376
SWIDTH 848 0
DWIDTH 12 0
BBX 13 13 -1 -1
BITMAP
002CD000
00144000
00000000
BFE04000
07D06F80
01F42800
00BDA000
002F8000
000F0000
000F4000
000F4000
000F8000
007FF800
ENDCHAR
STARTCHAR Zcaron
ENCODING 381
SWIDTH 685 0
DWIDTH 10 0
BBX 10 13 0 0
BITMAP
024900
02F800
00B000
001000
555690
BFFFD0
702F40
207E00
11F810
07F050
0FD0D0
2FE6D0
6AAA80
ENDCHAR
STARTCHAR zcaron
ENCODING 382
SWIDTH 549 0
DWIDTH 8 0
BBX 8 13 0 -1
BITMAP
0924
0BE0
02C0
0040
0555
BFFE
60BC
61F4
17D1
0F85
2F4D
7FFD
0004
ENDCHAR
STARTCHAR circumflex
ENCODING 710
SWIDTH 714 0
DWIDTH 10 0
BBX 5 4 3 9
BITMAP
0800
2F00
B780
4040
ENDCHAR
STARTCHAR caron
ENCODING 711
SWIDTH 714 0
DWIDTH 10 0
BBX 5 4 3 9
BITMAP
9180
7F40
1D00
0400
ENDCHAR
STARTCHAR breve
ENCODING 728
SWIDTH 715 0
DWIDTH 10 0
BBX 5 3 3 10
BITMAP
A180
7F40
1900
ENDCHAR
STARTCHAR dotaccent
ENCODING 729
SWIDTH 708 0
DWIDTH 10 0
BBX 2 2 4 11
BITMAP
A0
50
ENDCHAR
STARTCHAR ring
ENCODING 730
SWIDTH 704 0
DWIDTH 10 0
BBX 3 3 4 10
BITMAP
B4
DC
B4
ENDCHAR
STARTCHAR ogonek
ENCODING 731
SWIDTH 988 0
DWIDTH 14 0
BBX 6 4 4 -2
BITMAP
2000
7000
7A90
1A40
ENDCHAR
STARTCHAR tilde
ENCODING 732
SWIDTH 707 0
DWIDTH 10 0
BBX 5 3 3 10
BITMAP
1000
BE80
9B40
ENDCHAR
STARTCHAR hungarumlaut
ENCODING 733
SWIDTH 671 0
DWIDTH 9 0
BBX 5 4 3 10
BITMAP
5100
BB40
EB00
5500
ENDCHAR
STARTCHAR endash
ENCODING 8211
SWIDTH 576 0
DWIDTH 8 0
BBX 8 3 0 4
BITMAP
0554
7FFD
2AA9
ENDCHAR
STARTCHAR emdash
ENCODING 8212
SWIDTH 993 0
DWIDTH 14 0
BBX 13 2 0 4
BITMAP
7FFFFFC0
2BFFFFC0
ENDCHAR
STARTCHAR quoteleft
ENCODING 8216
SWIDTH 261 0
DWIDTH 4 0
BBX 4 4 0 6
BITMAP
1D
3D
BC
68
ENDCHAR
STARTCHAR quoteright
ENCODING 8217
SWIDTH 301 0
DWIDTH 4 0
BBX 4 4 0 6
BITMAP
29
3D
7C
64
ENDCHAR
STARTCHAR quotesinglbase
ENCODING 8218
SWIDTH 332 0
DWIDTH 5 0
BBX 4 4 0 -1
BITMAP
29
3D
7C
74
ENDCHAR
STARTCHAR quotedblleft
ENCODING 8220
SWIDTH 477 0
DWIDTH 7 0
BBX 7 4 0 6
BITMAP
1D74
3DF4
BEF0
69A0
ENDCHAR
STARTCHAR quotedblright
ENCODING 8221
SWIDTH 477 0
DWIDTH 7 0
BBX 7 4 0 6
BITMAP
38E0
7DF4
BAE0
71C0
ENDCHAR
STARTCHAR quotedblbase
ENCODING 8222
SWIDTH 477 0
DWIDTH 7 0
BBX 7 4 0 -1
BITMAP
38E0
7DF4
BAE0
71C0
ENDCHAR
STARTCHAR dagger
ENCODING 8224
SWIDTH 487 0
DWIDTH 7 0
BBX 7 16 0 -4
BITMAP
0680
0B80
0B80
5B80
BFF4
AFE4
0780
0780
0780
0780
0740
0740
0740
0740
0740
0740
ENDCHAR
STARTCHAR daggerdbl
ENCODING 8225
SWIDTH 497 0
DWIDTH 7 0
BBX 7 16 0 -4
BITMAP
0680
0B80
0B80
5B80
BFF4
AFE4
0780
6FF4
BFF4
0790
0740
0740
0740
0740
0740
0740
ENDCHAR
STARTCHAR bullet
ENCODING 8226
SWIDTH 275 0
DWIDTH 4 0
BBX 4 5 0 3
BITMAP
10
BD
FE
BE
14
ENDCHAR
STARTCHAR ellipsis
ENCODING 8230
SWIDTH 787 0
DWIDTH 11 0
BBX 11 3 0 -2
BITMAP
B8B8B8
BCB8F8
101010
ENDCHAR
STARTCHAR perthousand
ENCODING 8240
SWIDTH 888 0
DWIDTH 12 0
BBX 13 12 0 -1
BITMAP
04090000
BE1E0000
E73C0000
BB780000
14B40000
00E00000
01D00000
03CA5A00
076EFA80
0B29F6C0
0E1FAF40
05000000
ENDCHAR
STARTCHAR guilsinglleft
ENCODING 8249
SWIDTH 234 0
DWIDTH 3 0
BBX 3 7 0 0
BITMAP
08
1C
74
B0
74
28
0C
ENDCHAR
STARTCHAR guilsinglright
ENCODING 8250
SWIDTH 223 0
DWIDTH 3 0
BBX 3 7 0 0
BITMAP
80
A0
74
2C
38
70
90
ENDCHAR
STARTCHAR fraction
ENCODING 8260
SWIDTH 600 0
DWIDTH 8 0
BBX 10 14 -1 -2
BITMAP
000140
0003D0
000BD0
000F80
002F00
007D00
00F800
01F400
03E000
0BC000
1F4000
2E0000
7C0000
140000
ENDCHAR
STARTCHAR Euro
ENCODING 8364
SWIDTH 590 0
DWIDTH 8 0
BBX 10 9 -1 0
BITMAP
01BF40
03C3C0
0B42C0
7FF400
1F5400
6FFC10
07D180
02FF40
001400
ENDCHAR
STARTCHAR trademark
ENCODING 8482
SWIDTH 624 0
DWIDTH 9 0
BBX 9 7 0 4
BITMAP
100000
200000
B80000
61A600
619A40
659540
241400
ENDCHAR
STARTCHAR minus
ENCODING 8722
SWIDTH 549 0
DWIDTH 8 0
BBX 8 3 0 3
BITMAP
BFF9
FFFD
5554
ENDCHAR
STARTCHAR fi
ENCODING 64257
SWIDTH 757 0
DWIDTH 11 0
BBX 12 20 -1 -6
BITMAP
001500
00BBD0
01D0F4
02C0F8
03C0F8
03C060
03D000
2FFFF8
16E5B8
02E0B4
01E0B4
01E0B4
01F0B4
00F6FE
00F000
00F400
B4B000
B4F000
3AD000
064000
ENDCHAR
STARTCHAR fl
ENCODING 64258
SWIDTH 776 0
DWIDTH 11 0
BBX 12 20 -1 -6
BITMAP
001500
00BBD0
01D0F4
02C0B8
03C0B8
03C0B8
03D0B8
2FFE78
16E478
02E078
01E078
01E078
01F074
00F078
00F6FE
00F400
B4B000
B4F000
3AD000
064000
ENDCHAR
STARTCHAR .notdef
ENCODING -1
SWIDTH 320 0
DWIDTH 4 0
BBX 1 1 0 0
BITMAP
00
ENDCHAR
ENDFONT
